<svg width="100" height="28" viewBox="0 0 100 28" fill="none" xmlns="http://www.w3.org/2000/svg">
<g clip-path="url(#clip0_1_485)">
<path d="M25.543 18.7717L24.2528 9.835C23.9214 7.53666 21.921 5.83333 19.5656 5.83333H8.84175C6.4863 5.83333 4.48594 7.53666 4.15452 9.835L2.86434 18.7717C2.60394 20.5683 4.01248 22.1667 5.84713 22.1667C6.65201 22.1667 7.40954 21.8517 7.97769 21.2917L10.6527 18.6667H17.7546L20.4178 21.2917C20.9859 21.8517 21.7553 22.1667 22.5484 22.1667C24.3948 22.1667 25.8034 20.5683 25.543 18.7717ZM13.02 12.8333H10.6527V15.1667H9.46908V12.8333H7.10179V11.6667H9.46908V9.33333H10.6527V11.6667H13.02V12.8333ZM17.7546 11.6667C17.1036 11.6667 16.571 11.1417 16.571 10.5C16.571 9.85833 17.1036 9.33333 17.7546 9.33333C18.4056 9.33333 18.9382 9.85833 18.9382 10.5C18.9382 11.1417 18.4056 11.6667 17.7546 11.6667ZM20.1219 15.1667C19.4709 15.1667 18.9382 14.6417 18.9382 14C18.9382 13.3583 19.4709 12.8333 20.1219 12.8333C20.7729 12.8333 21.3055 13.3583 21.3055 14C21.3055 14.6417 20.7729 15.1667 20.1219 15.1667Z" fill="#2A7AE4"/>
</g>
<path d="M72.7731 17.92C71.9682 18.7134 71.0307 19.11 69.9607 19.11C69.2979 19.11 68.6729 18.9794 68.0858 18.718C67.5082 18.4567 67.0016 18.0974 66.566 17.64C66.1399 17.1827 65.799 16.646 65.5434 16.03C65.2972 15.4047 65.1741 14.7327 65.1741 14.014C65.1741 13.3327 65.2972 12.6934 65.5434 12.096C65.799 11.4894 66.1447 10.962 66.5802 10.514C67.0253 10.0567 67.5461 9.69736 68.1427 9.43602C68.7392 9.16536 69.3879 9.03002 70.0886 9.03002C71.0355 9.03002 71.8451 9.22602 72.5174 9.61802C73.1992 10.01 73.7105 10.5374 74.0514 11.2L72.5884 12.264C72.3328 11.7694 71.9729 11.3914 71.5089 11.13C71.0544 10.8687 70.5573 10.738 70.0176 10.738C69.5914 10.738 69.1985 10.8267 68.8386 11.004C68.4883 11.1814 68.1853 11.424 67.9296 11.732C67.6834 12.04 67.4893 12.3947 67.3472 12.796C67.2147 13.1974 67.1484 13.622 67.1484 14.07C67.1484 14.5367 67.2241 14.9754 67.3757 15.386C67.5272 15.7874 67.7355 16.1374 68.0006 16.436C68.2658 16.7347 68.5782 16.9727 68.9381 17.15C69.3074 17.318 69.7051 17.402 70.1312 17.402C71.1065 17.402 71.9871 16.9494 72.7731 16.044V15.344H70.7419V13.93H74.3923V19.04H72.7731V17.92Z" fill="#464646"/>
<path d="M79.3297 19.18C78.7331 19.18 78.1934 19.082 77.7104 18.886C77.2275 18.6807 76.8156 18.4054 76.4747 18.06C76.1338 17.7147 75.8687 17.3134 75.6793 16.856C75.4994 16.3987 75.4094 15.918 75.4094 15.414C75.4094 14.8914 75.4994 14.4014 75.6793 13.944C75.8592 13.4774 76.1196 13.0714 76.4605 12.726C76.8014 12.3714 77.2133 12.0914 77.6962 11.886C78.1886 11.6807 78.7378 11.578 79.3439 11.578C79.9499 11.578 80.4896 11.6807 80.9631 11.886C81.446 12.0914 81.8532 12.3667 82.1846 12.712C82.5255 13.0574 82.7812 13.4587 82.9516 13.916C83.1315 14.3734 83.2215 14.8494 83.2215 15.344C83.2215 15.4654 83.2168 15.582 83.2073 15.694C83.2073 15.806 83.1978 15.8994 83.1789 15.974H77.4264C77.4548 16.2634 77.5258 16.52 77.6394 16.744C77.753 16.968 77.8998 17.1594 78.0797 17.318C78.2596 17.4767 78.4632 17.598 78.6905 17.682C78.9178 17.766 79.1545 17.808 79.4007 17.808C79.7794 17.808 80.1345 17.7194 80.466 17.542C80.8069 17.3554 81.0388 17.1127 81.1619 16.814L82.7954 17.262C82.5208 17.822 82.0805 18.284 81.4744 18.648C80.8779 19.0027 80.1629 19.18 79.3297 19.18ZM81.2614 14.756C81.214 14.2054 81.0057 13.7667 80.6364 13.44C80.2766 13.104 79.8363 12.936 79.3155 12.936C79.0598 12.936 78.8183 12.9827 78.5911 13.076C78.3733 13.16 78.1792 13.2814 78.0087 13.44C77.8383 13.5987 77.6962 13.79 77.5826 14.014C77.4784 14.238 77.4169 14.4854 77.3979 14.756H81.2614Z" fill="#464646"/>
<path d="M87.8325 19.18C87.2359 19.18 86.6962 19.082 86.2133 18.886C85.7303 18.6807 85.3184 18.4054 84.9775 18.06C84.6366 17.7147 84.3715 17.3134 84.1821 16.856C84.0022 16.3987 83.9123 15.918 83.9123 15.414C83.9123 14.8914 84.0022 14.4014 84.1821 13.944C84.362 13.4774 84.6224 13.0714 84.9633 12.726C85.3042 12.3714 85.7161 12.0914 86.1991 11.886C86.6915 11.6807 87.2407 11.578 87.8467 11.578C88.4527 11.578 88.9925 11.6807 89.4659 11.886C89.9488 12.0914 90.356 12.3667 90.6874 12.712C91.0283 13.0574 91.284 13.4587 91.4544 13.916C91.6344 14.3734 91.7243 14.8494 91.7243 15.344C91.7243 15.4654 91.7196 15.582 91.7101 15.694C91.7101 15.806 91.7006 15.8994 91.6817 15.974H85.9292C85.9576 16.2634 86.0286 16.52 86.1422 16.744C86.2559 16.968 86.4026 17.1594 86.5826 17.318C86.7625 17.4767 86.9661 17.598 87.1933 17.682C87.4206 17.766 87.6573 17.808 87.9035 17.808C88.2823 17.808 88.6374 17.7194 88.9688 17.542C89.3097 17.3554 89.5417 17.1127 89.6648 16.814L91.2982 17.262C91.0236 17.822 90.5833 18.284 89.9773 18.648C89.3807 19.0027 88.6658 19.18 87.8325 19.18ZM89.7642 14.756C89.7169 14.2054 89.5085 13.7667 89.1392 13.44C88.7794 13.104 88.3391 12.936 87.8183 12.936C87.5626 12.936 87.3212 12.9827 87.0939 13.076C86.8761 13.16 86.682 13.2814 86.5115 13.44C86.3411 13.5987 86.1991 13.79 86.0854 14.014C85.9813 14.238 85.9197 14.4854 85.9008 14.756H89.7642Z" fill="#464646"/>
<path d="M97.9688 19.04L95.8098 15.862L94.7871 16.856V19.04H92.8838V8.82002H94.7871V15.022L97.7699 11.718H99.801L97.0313 14.826L99.9999 19.04H97.9688Z" fill="#464646"/>
<path d="M32.2567 9.10002H33.9895L37.8246 19.04H35.8076L34.8702 16.562H31.3476L30.4244 19.04H28.4075L32.2567 9.10002ZM34.5151 15.204L33.1231 11.298L31.6743 15.204H34.5151Z" fill="#2A7AE4"/>
<path d="M38.7318 8.82002H40.6351V16.688C40.6351 16.9587 40.7014 17.1687 40.834 17.318C40.9665 17.4674 41.1559 17.542 41.4021 17.542C41.5158 17.542 41.6389 17.5234 41.7714 17.486C41.9135 17.4487 42.046 17.402 42.1691 17.346L42.4248 18.774C42.1691 18.8954 41.8708 18.9887 41.53 19.054C41.1891 19.1194 40.8813 19.152 40.6067 19.152C40.0102 19.152 39.5462 18.998 39.2147 18.69C38.8928 18.3727 38.7318 17.9247 38.7318 17.346V8.82002Z" fill="#2A7AE4"/>
<path d="M45.5266 19.18C44.7596 19.18 44.1773 18.9374 43.7796 18.452C43.3819 17.9667 43.183 17.248 43.183 16.296V11.704H45.0863V15.89C45.0863 17.0194 45.4982 17.584 46.3221 17.584C46.6914 17.584 47.0464 17.4767 47.3873 17.262C47.7377 17.038 48.0218 16.702 48.2396 16.254V11.704H50.1429V16.884C50.1429 17.08 50.176 17.22 50.2423 17.304C50.318 17.388 50.4364 17.4347 50.5974 17.444V19.04C50.408 19.0774 50.247 19.1007 50.1145 19.11C49.9914 19.1194 49.8777 19.124 49.7736 19.124C49.4327 19.124 49.1533 19.0494 48.9355 18.9C48.7272 18.7414 48.6041 18.5267 48.5662 18.256L48.5236 17.668C48.1922 18.172 47.7661 18.55 47.2453 18.802C46.7245 19.054 46.1516 19.18 45.5266 19.18Z" fill="#2A7AE4"/>
<path d="M56.4659 13.328C55.8882 13.3374 55.3722 13.4494 54.9177 13.664C54.4631 13.8694 54.1364 14.182 53.9376 14.602V19.04H52.0343V11.704H53.7814V13.272C53.9139 13.02 54.0702 12.796 54.2501 12.6C54.43 12.3947 54.6241 12.2174 54.8324 12.068C55.0408 11.9187 55.2491 11.8067 55.4574 11.732C55.6752 11.648 55.8835 11.606 56.0824 11.606C56.1865 11.606 56.2623 11.606 56.3096 11.606C56.3664 11.606 56.4185 11.6107 56.4659 11.62V13.328Z" fill="#2A7AE4"/>
<path d="M59.4612 19.18C59.1014 19.18 58.7652 19.124 58.4527 19.012C58.1402 18.8907 57.8704 18.7274 57.6431 18.522C57.4158 18.3074 57.2359 18.06 57.1034 17.78C56.9803 17.5 56.9187 17.192 56.9187 16.856C56.9187 16.5107 56.9945 16.1934 57.146 15.904C57.3069 15.6054 57.5247 15.3534 57.7993 15.148C58.0834 14.9427 58.4196 14.784 58.8078 14.672C59.196 14.5507 59.6222 14.49 60.0861 14.49C60.4176 14.49 60.7395 14.518 61.052 14.574C61.374 14.63 61.658 14.7094 61.9042 14.812V14.392C61.9042 13.9067 61.7622 13.5334 61.4781 13.272C61.2035 13.0107 60.7916 12.88 60.2424 12.88C59.8447 12.88 59.4564 12.95 59.0777 13.09C58.6989 13.23 58.3107 13.4354 57.913 13.706L57.3306 12.516C58.287 11.8907 59.3191 11.578 60.427 11.578C61.4971 11.578 62.3256 11.8394 62.9127 12.362C63.5093 12.8754 63.8075 13.622 63.8075 14.602V16.884C63.8075 17.08 63.8407 17.22 63.907 17.304C63.9827 17.388 64.1011 17.4347 64.2621 17.444V19.04C63.9401 19.1054 63.6608 19.138 63.424 19.138C63.0642 19.138 62.7849 19.0587 62.586 18.9C62.3966 18.7414 62.2783 18.5314 62.2309 18.27L62.1883 17.864C61.8569 18.2934 61.4544 18.62 60.981 18.844C60.5075 19.068 60.0009 19.18 59.4612 19.18ZM60.0009 17.808C60.3229 17.808 60.6259 17.752 60.91 17.64C61.2035 17.528 61.4308 17.3787 61.5917 17.192C61.8001 17.0334 61.9042 16.856 61.9042 16.66V15.82C61.677 15.736 61.4308 15.6707 61.1656 15.624C60.9005 15.568 60.6448 15.54 60.3986 15.54C59.9062 15.54 59.5038 15.652 59.1913 15.876C58.8788 16.0907 58.7226 16.366 58.7226 16.702C58.7226 17.0194 58.8457 17.2854 59.0919 17.5C59.3381 17.7054 59.6411 17.808 60.0009 17.808Z" fill="#2A7AE4"/>
<defs>
<clipPath id="clip0_1_485">
<rect width="28.4075" height="28" fill="white"/>
</clipPath>
</defs>
</svg>
